<svg id="logosandtypes_com" data-name="logosandtypes com" xmlns="http://www.w3.org/2000/svg" viewBox="0 0 150 150"><defs><style>.cls-1{fill:none;}.cls-2{fill:#e73d5c;}.cls-2,.cls-3,.cls-4,.cls-5,.cls-6,.cls-7{fill-rule:evenodd;}.cls-3{fill:#ef5f79;}.cls-4{fill:#bb243f;}.cls-5{fill:#3462b5;}.cls-6{fill:#1446a0;}.cls-7{fill:#0a3581;}</style></defs><path class="cls-1" d="M0,.2H150v150H0Z" transform="translate(0 -0.2)"/><polygon id="Fill-1" class="cls-2" points="35.21 62.86 63.09 77.69 79.95 61.67 87.86 36.73 87.86 10.13 35.21 62.86"/><polygon id="Fill-2" class="cls-3" points="58.25 66.34 61.54 89.23 87.86 63.42 87.86 34.84 58.25 66.34"/><polygon id="Fill-3" class="cls-4" points="35.21 89.23 61.54 89.23 61.54 62.86 35.21 62.86 35.21 89.23"/><polygon id="Fill-4" class="cls-5" points="114.19 88.41 87.86 62.04 69.44 89.6 61.54 114.53 61.54 141.14 114.19 88.41"/><polygon id="Fill-5" class="cls-6" points="87.86 88.41 87.86 62.04 61.54 89.23 61.54 116.42 87.86 88.41"/><polygon id="Fill-6" class="cls-7" points="87.86 88.41 114.19 88.41 114.19 62.04 87.86 62.04 87.86 88.41"/></svg>